<?xml version="1.0" encoding="UTF-8"?>
<svg id="Capa_1" xmlns="http://www.w3.org/2000/svg" version="1.1" viewBox="0 0 841.89 595.28">
  <!-- Generator: Adobe Illustrator 30.3.0, SVG Export Plug-In . SVG Version: 2.1.3 Build 182)  -->
  <defs>
    <style>
      .st0, .st1 {
        fill: #05a3bb;
      }

      .st1 {
        font-size: 49.72px;
      }

      .st1, .st2 {
        font-family: Cambo-Regular, Cambo;
      }

      .st3 {
        fill: #1e1e1c;
      }

      .st2 {
        fill: #9a9999;
        font-size: 25.93px;
      }
    </style>
  </defs>
  <g>
    <path class="st3" d="M525.86,182.95c-.69,0-1.39-.26-1.92-.79l-75.98-75.98-75.98,75.98c-1.06,1.06-2.77,1.06-3.83,0s-1.06-2.77,0-3.83l77.9-77.9c1.06-1.06,2.77-1.06,3.83,0l77.9,77.9c1.06,1.06,1.06,2.77,0,3.83-.53.53-1.22.79-1.92.79Z"/>
    <path class="st3" d="M308.62,364.68c-.53,0-1.05-.15-1.5-.45-.76-.5-1.21-1.35-1.21-2.26v-155.79c0-1.09.65-2.07,1.66-2.5l61.44-25.94c.84-.35,1.79-.27,2.55.24.76.5,1.21,1.35,1.21,2.26v155.79c0,1.09-.65,2.07-1.66,2.5l-61.44,25.94c-.34.14-.7.21-1.05.21ZM311.33,207.98v149.91l56.02-23.65v-149.91l-56.02,23.65ZM370.06,336.04h.03-.03Z"/>
    <path class="st3" d="M525.86,338.75h-155.79c-1.5,0-2.71-1.21-2.71-2.71v-155.79c0-1.5,1.21-2.71,2.71-2.71h155.79c1.5,0,2.71,1.21,2.71,2.71v155.79c0,1.5-1.21,2.71-2.71,2.71ZM372.77,333.33h150.38v-150.38h-150.38v150.38Z"/>
    <path class="st0" d="M490.2,326.15c14.56-14.25,14.82-37.6.57-52.16-1.45-1.48-3.02-2.78-4.64-3.97,7.47-1.08,14.67-4.42,20.48-10.1,14.56-14.25,14.82-37.6.57-52.16-10.58-10.82-26.19-13.72-39.49-8.67,5.35-13.18,2.78-28.85-7.8-39.67-14.25-14.56-37.6-14.82-52.16-.57-5.66,5.53-9.13,12.45-10.45,19.68-.36-.41-.7-.83-1.08-1.23-14.25-14.56-37.6-14.82-52.16-.57-14.56,14.25-14.82,37.6-.57,52.16.56.58,1.16,1.09,1.75,1.62-7.1,1.23-13.91,4.54-19.45,9.96-14.56,14.25-14.82,37.6-.57,52.16,10.58,10.82,26.19,13.72,39.49,8.67-5.35,13.18-2.78,28.85,7.8,39.67,14.25,14.56,37.6,14.82,52.16.57,5.6-5.48,9.06-12.31,10.42-19.47.92,1.2,1.89,2.38,2.98,3.49,14.25,14.56,37.6,14.82,52.16.57Z"/>
    <path class="st3" d="M464.41,364.68h-155.79c-1.5,0-2.71-1.21-2.71-2.71v-155.79c0-1.5,1.21-2.71,2.71-2.71h155.79c1.5,0,2.71,1.21,2.71,2.71v155.79c0,1.5-1.21,2.71-2.71,2.71ZM311.33,359.27h150.38v-150.38h-150.38v150.38Z"/>
    <path class="st3" d="M464.41,208.89c-.69,0-1.39-.26-1.92-.79l-75.98-75.98-75.98,75.98c-1.06,1.06-2.77,1.06-3.83,0s-1.06-2.77,0-3.83l77.9-77.9c1.06-1.06,2.77-1.06,3.83,0l77.9,77.9c1.06,1.06,1.06,2.77,0,3.83-.53.53-1.22.79-1.92.79Z"/>
    <path class="st3" d="M464.41,364.68c-.52,0-1.05-.15-1.5-.45-.76-.5-1.21-1.35-1.21-2.26v-155.79c0-1.09.65-2.07,1.66-2.5l61.44-25.94c.83-.35,1.79-.27,2.55.24.76.5,1.21,1.35,1.21,2.26v155.79c0,1.09-.65,2.07-1.66,2.5l-61.44,25.94c-.34.14-.7.21-1.05.21ZM467.12,207.98v149.91l56.02-23.65v-149.91l-56.02,23.65ZM525.86,336.04h.03-.03Z"/>
    <path class="st3" d="M386.52,130.99c-1.06,0-2.06-.62-2.5-1.66-.58-1.38.06-2.97,1.44-3.55l61.44-25.94c1.38-.58,2.97.06,3.55,1.44.58,1.38-.06,2.97-1.44,3.55l-61.44,25.94c-.34.15-.7.21-1.05.21Z"/>
    <circle class="st0" cx="522.26" cy="332.19" r="20.73"/>
    <circle class="st0" cx="544.99" cy="374.69" r="16.16"/>
    <circle class="st0" cx="534.32" cy="412.8" r="12.06"/>
  </g>
  <text class="st1" transform="translate(282.3 449.17)"><tspan x="0" y="0">Imaginada</tspan></text>
  <text class="st1" transform="translate(282.3 405.61)"><tspan x="0" y="0">Casa</tspan></text>
  <text class="st2" transform="translate(284.41 488.2)"><tspan x="0" y="0">cooperativa cultural</tspan></text>
</svg>